<mxfile host="app.diagrams.net" modified="2020-12-30T13:26:05.383Z" agent="5.0 (Windows)" etag="URFPy0ZhgDnFzlP2rxvf" version="14.1.3" type="github">
  <diagram id="C5RBs43oDa-KdzZeNtuy" name="Page-1">
    <mxGraphModel dx="1564" dy="854" grid="1" gridSize="20" guides="1" tooltips="1" connect="1" arrows="1" fold="1" page="1" pageScale="1" pageWidth="1200" pageHeight="1000" math="0" shadow="0">
      <root>
        <mxCell id="WIyWlLk6GJQsqaUBKTNV-0" />
        <mxCell id="WIyWlLk6GJQsqaUBKTNV-1" parent="WIyWlLk6GJQsqaUBKTNV-0" />
        <mxCell id="zkfFHV4jXpPFQw0GAbJ--6" value="فروشنده" style="swimlane;fontStyle=0;align=center;verticalAlign=top;childLayout=stackLayout;horizontal=1;startSize=26;horizontalStack=0;resizeParent=1;resizeLast=0;collapsible=1;marginBottom=0;rounded=0;shadow=0;strokeWidth=1;" parent="WIyWlLk6GJQsqaUBKTNV-1" vertex="1">
          <mxGeometry x="625" y="541" width="160" height="100" as="geometry">
            <mxRectangle x="130" y="380" width="160" height="26" as="alternateBounds" />
          </mxGeometry>
        </mxCell>
        <mxCell id="zkfFHV4jXpPFQw0GAbJ--9" value="" style="line;html=1;strokeWidth=1;align=left;verticalAlign=middle;spacingTop=-1;spacingLeft=3;spacingRight=3;rotatable=0;labelPosition=right;points=[];portConstraint=eastwest;" parent="zkfFHV4jXpPFQw0GAbJ--6" vertex="1">
          <mxGeometry y="26" width="160" height="14" as="geometry" />
        </mxCell>
        <mxCell id="zkfFHV4jXpPFQw0GAbJ--13" value="خریدار" style="swimlane;fontStyle=0;align=center;verticalAlign=top;childLayout=stackLayout;horizontal=1;startSize=26;horizontalStack=0;resizeParent=1;resizeLast=0;collapsible=1;marginBottom=0;rounded=0;shadow=0;strokeWidth=1;" parent="WIyWlLk6GJQsqaUBKTNV-1" vertex="1">
          <mxGeometry x="365" y="541" width="160" height="100" as="geometry">
            <mxRectangle x="340" y="380" width="170" height="26" as="alternateBounds" />
          </mxGeometry>
        </mxCell>
        <mxCell id="zkfFHV4jXpPFQw0GAbJ--15" value="" style="line;html=1;strokeWidth=1;align=left;verticalAlign=middle;spacingTop=-1;spacingLeft=3;spacingRight=3;rotatable=0;labelPosition=right;points=[];portConstraint=eastwest;" parent="zkfFHV4jXpPFQw0GAbJ--13" vertex="1">
          <mxGeometry y="26" width="160" height="14" as="geometry" />
        </mxCell>
        <mxCell id="zkfFHV4jXpPFQw0GAbJ--17" value="ادمین&#xa;" style="swimlane;fontStyle=0;align=center;verticalAlign=top;childLayout=stackLayout;horizontal=1;startSize=26;horizontalStack=0;resizeParent=1;resizeLast=0;collapsible=1;marginBottom=0;rounded=0;shadow=0;strokeWidth=1;" parent="WIyWlLk6GJQsqaUBKTNV-1" vertex="1">
          <mxGeometry x="125" y="541" width="160" height="100" as="geometry">
            <mxRectangle x="550" y="140" width="160" height="26" as="alternateBounds" />
          </mxGeometry>
        </mxCell>
        <mxCell id="zkfFHV4jXpPFQw0GAbJ--23" value="" style="line;html=1;strokeWidth=1;align=left;verticalAlign=middle;spacingTop=-1;spacingLeft=3;spacingRight=3;rotatable=0;labelPosition=right;points=[];portConstraint=eastwest;" parent="zkfFHV4jXpPFQw0GAbJ--17" vertex="1">
          <mxGeometry y="26" width="160" height="14" as="geometry" />
        </mxCell>
        <mxCell id="yiejE2Crp5BbZ_o_QNIk-0" value="خرید" style="swimlane;fontStyle=0;align=center;verticalAlign=top;childLayout=stackLayout;horizontal=1;startSize=26;horizontalStack=0;resizeParent=1;resizeLast=0;collapsible=1;marginBottom=0;rounded=0;shadow=0;strokeWidth=1;fillColor=#f8cecc;strokeColor=#b85450;" parent="WIyWlLk6GJQsqaUBKTNV-1" vertex="1">
          <mxGeometry x="525" y="810" width="160" height="100" as="geometry">
            <mxRectangle x="340" y="380" width="170" height="26" as="alternateBounds" />
          </mxGeometry>
        </mxCell>
        <mxCell id="yiejE2Crp5BbZ_o_QNIk-2" value="" style="line;html=1;strokeWidth=1;align=left;verticalAlign=middle;spacingTop=-1;spacingLeft=3;spacingRight=3;rotatable=0;labelPosition=right;points=[];portConstraint=eastwest;" parent="yiejE2Crp5BbZ_o_QNIk-0" vertex="1">
          <mxGeometry y="26" width="160" height="8" as="geometry" />
        </mxCell>
        <mxCell id="yiejE2Crp5BbZ_o_QNIk-9" value="نظر" style="swimlane;fontStyle=0;align=center;verticalAlign=top;childLayout=stackLayout;horizontal=1;startSize=26;horizontalStack=0;resizeParent=1;resizeLast=0;collapsible=1;marginBottom=0;rounded=0;shadow=0;strokeWidth=1;" parent="WIyWlLk6GJQsqaUBKTNV-1" vertex="1">
          <mxGeometry x="905" y="470" width="170" height="110" as="geometry">
            <mxRectangle x="340" y="380" width="170" height="26" as="alternateBounds" />
          </mxGeometry>
        </mxCell>
        <mxCell id="yiejE2Crp5BbZ_o_QNIk-11" value="" style="line;html=1;strokeWidth=1;align=left;verticalAlign=middle;spacingTop=-1;spacingLeft=3;spacingRight=3;rotatable=0;labelPosition=right;points=[];portConstraint=eastwest;" parent="yiejE2Crp5BbZ_o_QNIk-9" vertex="1">
          <mxGeometry y="26" width="170" height="8" as="geometry" />
        </mxCell>
        <mxCell id="yiejE2Crp5BbZ_o_QNIk-12" value="آدرس" style="swimlane;fontStyle=0;align=center;verticalAlign=top;childLayout=stackLayout;horizontal=1;startSize=26;horizontalStack=0;resizeParent=1;resizeLast=0;collapsible=1;marginBottom=0;rounded=0;shadow=0;strokeWidth=1;fillColor=#dae8fc;strokeColor=#6c8ebf;" parent="WIyWlLk6GJQsqaUBKTNV-1" vertex="1">
          <mxGeometry x="359" y="93" width="160" height="116" as="geometry">
            <mxRectangle x="334" y="540" width="170" height="26" as="alternateBounds" />
          </mxGeometry>
        </mxCell>
        <mxCell id="yiejE2Crp5BbZ_o_QNIk-14" value="" style="line;html=1;strokeWidth=1;align=left;verticalAlign=middle;spacingTop=-1;spacingLeft=3;spacingRight=3;rotatable=0;labelPosition=right;points=[];portConstraint=eastwest;" parent="yiejE2Crp5BbZ_o_QNIk-12" vertex="1">
          <mxGeometry y="26" width="160" height="8" as="geometry" />
        </mxCell>
        <mxCell id="yiejE2Crp5BbZ_o_QNIk-18" value="غذا" style="swimlane;fontStyle=0;align=center;verticalAlign=top;childLayout=stackLayout;horizontal=1;startSize=26;horizontalStack=0;resizeParent=1;resizeLast=0;collapsible=1;marginBottom=0;rounded=0;shadow=0;strokeWidth=1;" parent="WIyWlLk6GJQsqaUBKTNV-1" vertex="1">
          <mxGeometry x="910" y="90" width="160" height="122" as="geometry">
            <mxRectangle x="860" y="480" width="170" height="26" as="alternateBounds" />
          </mxGeometry>
        </mxCell>
        <mxCell id="yiejE2Crp5BbZ_o_QNIk-20" value="" style="line;html=1;strokeWidth=1;align=left;verticalAlign=middle;spacingTop=-1;spacingLeft=3;spacingRight=3;rotatable=0;labelPosition=right;points=[];portConstraint=eastwest;" parent="yiejE2Crp5BbZ_o_QNIk-18" vertex="1">
          <mxGeometry y="26" width="160" height="8" as="geometry" />
        </mxCell>
        <mxCell id="yiejE2Crp5BbZ_o_QNIk-24" value="کاربر" style="swimlane;fontStyle=2;align=center;verticalAlign=top;childLayout=stackLayout;horizontal=1;startSize=26;horizontalStack=0;resizeParent=1;resizeLast=0;collapsible=1;marginBottom=0;rounded=0;shadow=0;strokeWidth=1;" parent="WIyWlLk6GJQsqaUBKTNV-1" vertex="1">
          <mxGeometry x="361" y="346" width="160" height="100" as="geometry">
            <mxRectangle x="230" y="140" width="160" height="26" as="alternateBounds" />
          </mxGeometry>
        </mxCell>
        <mxCell id="yiejE2Crp5BbZ_o_QNIk-26" value="" style="line;html=1;strokeWidth=1;align=left;verticalAlign=middle;spacingTop=-1;spacingLeft=3;spacingRight=3;rotatable=0;labelPosition=right;points=[];portConstraint=eastwest;" parent="yiejE2Crp5BbZ_o_QNIk-24" vertex="1">
          <mxGeometry y="26" width="160" height="8" as="geometry" />
        </mxCell>
        <mxCell id="yiejE2Crp5BbZ_o_QNIk-31" value="" style="endArrow=block;endSize=10;endFill=0;shadow=0;strokeWidth=1;rounded=0;edgeStyle=elbowEdgeStyle;elbow=vertical;exitX=0.375;exitY=0.01;exitDx=0;exitDy=0;entryX=0.5;entryY=1;entryDx=0;entryDy=0;exitPerimeter=0;" parent="WIyWlLk6GJQsqaUBKTNV-1" source="zkfFHV4jXpPFQw0GAbJ--6" target="yiejE2Crp5BbZ_o_QNIk-24" edge="1">
          <mxGeometry width="160" relative="1" as="geometry">
            <mxPoint x="581" y="548" as="sourcePoint" />
            <mxPoint x="471" y="446" as="targetPoint" />
            <Array as="points">
              <mxPoint x="561" y="481" />
              <mxPoint x="441" y="501" />
            </Array>
          </mxGeometry>
        </mxCell>
        <mxCell id="yiejE2Crp5BbZ_o_QNIk-33" value="" style="endArrow=block;endSize=10;endFill=0;shadow=0;strokeWidth=1;rounded=0;edgeStyle=elbowEdgeStyle;elbow=vertical;entryX=0.5;entryY=1;entryDx=0;entryDy=0;" parent="WIyWlLk6GJQsqaUBKTNV-1" source="zkfFHV4jXpPFQw0GAbJ--13" edge="1">
          <mxGeometry width="160" relative="1" as="geometry">
            <mxPoint x="705" y="541" as="sourcePoint" />
            <mxPoint x="441" y="446" as="targetPoint" />
            <Array as="points">
              <mxPoint x="441" y="521" />
            </Array>
          </mxGeometry>
        </mxCell>
        <mxCell id="yiejE2Crp5BbZ_o_QNIk-35" value="" style="endArrow=block;endSize=10;endFill=0;shadow=0;strokeWidth=1;rounded=0;edgeStyle=elbowEdgeStyle;elbow=vertical;entryX=0.5;entryY=1;entryDx=0;entryDy=0;exitX=0.5;exitY=0;exitDx=0;exitDy=0;" parent="WIyWlLk6GJQsqaUBKTNV-1" source="zkfFHV4jXpPFQw0GAbJ--17" edge="1">
          <mxGeometry width="160" relative="1" as="geometry">
            <mxPoint x="441" y="541" as="sourcePoint" />
            <mxPoint x="441" y="446" as="targetPoint" />
            <Array as="points">
              <mxPoint x="421" y="481" />
              <mxPoint x="441" y="521" />
            </Array>
          </mxGeometry>
        </mxCell>
        <mxCell id="yiejE2Crp5BbZ_o_QNIk-38" value="رستوران" style="swimlane;fontStyle=0;align=center;verticalAlign=top;childLayout=stackLayout;horizontal=1;startSize=26;horizontalStack=0;resizeParent=1;resizeLast=0;collapsible=1;marginBottom=0;rounded=0;shadow=0;strokeWidth=1;" parent="WIyWlLk6GJQsqaUBKTNV-1" vertex="1">
          <mxGeometry x="615" y="250" width="160" height="122" as="geometry">
            <mxRectangle x="340" y="380" width="170" height="26" as="alternateBounds" />
          </mxGeometry>
        </mxCell>
        <mxCell id="yiejE2Crp5BbZ_o_QNIk-40" value="" style="line;html=1;strokeWidth=1;align=left;verticalAlign=middle;spacingTop=-1;spacingLeft=3;spacingRight=3;rotatable=0;labelPosition=right;points=[];portConstraint=eastwest;" parent="yiejE2Crp5BbZ_o_QNIk-38" vertex="1">
          <mxGeometry y="26" width="160" height="8" as="geometry" />
        </mxCell>
        <mxCell id="yiejE2Crp5BbZ_o_QNIk-44" value="" style="endArrow=diamondThin;endFill=0;endSize=24;html=1;fontSize=36;exitX=0.5;exitY=1;exitDx=0;exitDy=0;entryX=0.5;entryY=0;entryDx=0;entryDy=0;" parent="WIyWlLk6GJQsqaUBKTNV-1" source="yiejE2Crp5BbZ_o_QNIk-12" target="yiejE2Crp5BbZ_o_QNIk-24" edge="1">
          <mxGeometry width="160" relative="1" as="geometry">
            <mxPoint x="305" y="310.5" as="sourcePoint" />
            <mxPoint x="465" y="310.5" as="targetPoint" />
          </mxGeometry>
        </mxCell>
        <mxCell id="yiejE2Crp5BbZ_o_QNIk-45" value="" style="endArrow=diamondThin;endFill=0;endSize=24;html=1;fontSize=36;exitX=1;exitY=0.5;exitDx=0;exitDy=0;entryX=0.5;entryY=0;entryDx=0;entryDy=0;" parent="WIyWlLk6GJQsqaUBKTNV-1" source="yiejE2Crp5BbZ_o_QNIk-12" target="yiejE2Crp5BbZ_o_QNIk-38" edge="1">
          <mxGeometry width="160" relative="1" as="geometry">
            <mxPoint x="521.0799999999999" y="208.00600000000009" as="sourcePoint" />
            <mxPoint x="441" y="346" as="targetPoint" />
            <Array as="points">
              <mxPoint x="695" y="151" />
            </Array>
          </mxGeometry>
        </mxCell>
        <mxCell id="yiejE2Crp5BbZ_o_QNIk-47" value="&lt;font style=&quot;font-size: 20px&quot;&gt;مدیریت&lt;/font&gt;" style="verticalAlign=bottom;html=1;endArrow=none;edgeStyle=orthogonalEdgeStyle;fontSize=36;exitX=0.653;exitY=-0.009;exitDx=0;exitDy=0;exitPerimeter=0;" parent="WIyWlLk6GJQsqaUBKTNV-1" source="zkfFHV4jXpPFQw0GAbJ--6" edge="1">
          <mxGeometry x="-0.1696" y="-40" relative="1" as="geometry">
            <mxPoint x="730.0799999999999" y="543.5999999999999" as="sourcePoint" />
            <mxPoint x="728" y="372" as="targetPoint" />
            <Array as="points">
              <mxPoint x="728" y="540" />
            </Array>
            <mxPoint as="offset" />
          </mxGeometry>
        </mxCell>
        <mxCell id="yiejE2Crp5BbZ_o_QNIk-48" value="&lt;font style=&quot;font-size: 20px&quot;&gt;1&lt;/font&gt;" style="resizable=0;html=1;align=left;verticalAlign=top;labelBackgroundColor=none;fontSize=10" parent="yiejE2Crp5BbZ_o_QNIk-47" connectable="0" vertex="1">
          <mxGeometry x="-1" relative="1" as="geometry">
            <mxPoint x="11" y="-33" as="offset" />
          </mxGeometry>
        </mxCell>
        <mxCell id="yiejE2Crp5BbZ_o_QNIk-50" value="&lt;font style=&quot;font-size: 20px&quot;&gt;&amp;nbsp;1..*&lt;/font&gt;" style="resizable=0;html=1;align=right;verticalAlign=top;labelBackgroundColor=none;fontSize=10" parent="yiejE2Crp5BbZ_o_QNIk-47" connectable="0" vertex="1">
          <mxGeometry x="0.9" relative="1" as="geometry">
            <mxPoint x="40" as="offset" />
          </mxGeometry>
        </mxCell>
        <mxCell id="yiejE2Crp5BbZ_o_QNIk-59" value="" style="endArrow=diamondThin;endFill=0;endSize=24;html=1;fontSize=36;exitX=0.5;exitY=0;exitDx=0;exitDy=0;strokeWidth=1;entryX=1;entryY=0.5;entryDx=0;entryDy=0;" parent="WIyWlLk6GJQsqaUBKTNV-1" source="yiejE2Crp5BbZ_o_QNIk-9" target="yiejE2Crp5BbZ_o_QNIk-38" edge="1">
          <mxGeometry width="160" relative="1" as="geometry">
            <mxPoint x="985" y="356" as="sourcePoint" />
            <mxPoint x="773.0799999999999" y="302.98800000000006" as="targetPoint" />
            <Array as="points">
              <mxPoint x="990" y="311" />
            </Array>
          </mxGeometry>
        </mxCell>
        <mxCell id="yiejE2Crp5BbZ_o_QNIk-60" value="&lt;font style=&quot;font-size: 20px&quot;&gt;&lt;font style=&quot;font-size: 20px&quot;&gt;ثبت کردن&lt;/font&gt;&lt;br&gt;&lt;/font&gt;" style="verticalAlign=bottom;html=1;endArrow=none;edgeStyle=orthogonalEdgeStyle;fontSize=36;entryX=0.5;entryY=1;entryDx=0;entryDy=0;strokeWidth=1;" parent="WIyWlLk6GJQsqaUBKTNV-1" target="yiejE2Crp5BbZ_o_QNIk-9" edge="1">
          <mxGeometry x="-0.1122" relative="1" as="geometry">
            <mxPoint x="485" y="641" as="sourcePoint" />
            <mxPoint x="852" y="570" as="targetPoint" />
            <Array as="points">
              <mxPoint x="485" y="641" />
              <mxPoint x="485" y="741" />
              <mxPoint x="985" y="741" />
            </Array>
            <mxPoint as="offset" />
          </mxGeometry>
        </mxCell>
        <mxCell id="yiejE2Crp5BbZ_o_QNIk-63" value="" style="endArrow=diamondThin;endFill=0;endSize=24;html=1;fontSize=36;exitX=0.5;exitY=1;exitDx=0;exitDy=0;entryX=1;entryY=0.077;entryDx=0;entryDy=0;entryPerimeter=0;" parent="WIyWlLk6GJQsqaUBKTNV-1" source="yiejE2Crp5BbZ_o_QNIk-18" edge="1">
          <mxGeometry width="160" relative="1" as="geometry">
            <mxPoint x="745" y="130" as="sourcePoint" />
            <mxPoint x="775" y="278.00199999999995" as="targetPoint" />
            <Array as="points">
              <mxPoint x="990" y="278" />
              <mxPoint x="965" y="278" />
            </Array>
          </mxGeometry>
        </mxCell>
        <mxCell id="yiejE2Crp5BbZ_o_QNIk-67" value="1" style="edgeLabel;html=1;align=center;verticalAlign=middle;resizable=0;points=[];fontSize=20;" parent="WIyWlLk6GJQsqaUBKTNV-1" vertex="1" connectable="0">
          <mxGeometry x="804.9993335534814" y="209.00066355540844" as="geometry">
            <mxPoint x="-381" y="22" as="offset" />
          </mxGeometry>
        </mxCell>
        <mxCell id="yiejE2Crp5BbZ_o_QNIk-69" value="1" style="edgeLabel;html=1;align=center;verticalAlign=middle;resizable=0;points=[];fontSize=20;" parent="WIyWlLk6GJQsqaUBKTNV-1" vertex="1" connectable="0">
          <mxGeometry x="422" y="330" as="geometry" />
        </mxCell>
        <mxCell id="yiejE2Crp5BbZ_o_QNIk-71" value="1" style="edgeLabel;html=1;align=center;verticalAlign=middle;resizable=0;points=[];fontSize=20;" parent="WIyWlLk6GJQsqaUBKTNV-1" vertex="1" connectable="0">
          <mxGeometry x="665" y="230" as="geometry">
            <mxPoint x="-2" as="offset" />
          </mxGeometry>
        </mxCell>
        <mxCell id="yiejE2Crp5BbZ_o_QNIk-72" value="1" style="edgeLabel;html=1;align=center;verticalAlign=middle;resizable=0;points=[];fontSize=20;" parent="WIyWlLk6GJQsqaUBKTNV-1" vertex="1" connectable="0">
          <mxGeometry x="805" y="254" as="geometry">
            <mxPoint x="-1" y="-4" as="offset" />
          </mxGeometry>
        </mxCell>
        <mxCell id="yiejE2Crp5BbZ_o_QNIk-73" value="&lt;font style=&quot;font-size: 20px&quot;&gt;&amp;nbsp;1..*&lt;/font&gt;" style="resizable=0;html=1;align=right;verticalAlign=top;labelBackgroundColor=none;fontSize=10" parent="WIyWlLk6GJQsqaUBKTNV-1" connectable="0" vertex="1">
          <mxGeometry x="984" y="212" as="geometry" />
        </mxCell>
        <mxCell id="yiejE2Crp5BbZ_o_QNIk-75" value="&lt;font style=&quot;font-size: 20px&quot;&gt;مدیریت&lt;/font&gt;" style="verticalAlign=bottom;html=1;endArrow=none;edgeStyle=orthogonalEdgeStyle;fontSize=36;exitX=0.25;exitY=0;exitDx=0;exitDy=0;" parent="WIyWlLk6GJQsqaUBKTNV-1" source="zkfFHV4jXpPFQw0GAbJ--17" edge="1">
          <mxGeometry x="-0.1471" relative="1" as="geometry">
            <mxPoint x="245" y="330" as="sourcePoint" />
            <mxPoint x="615" y="290" as="targetPoint" />
            <Array as="points">
              <mxPoint x="165" y="290" />
              <mxPoint x="615" y="290" />
            </Array>
            <mxPoint as="offset" />
          </mxGeometry>
        </mxCell>
        <mxCell id="yiejE2Crp5BbZ_o_QNIk-76" value="&lt;font style=&quot;font-size: 20px&quot;&gt;1&lt;/font&gt;" style="resizable=0;html=1;align=left;verticalAlign=top;labelBackgroundColor=none;fontSize=10" parent="yiejE2Crp5BbZ_o_QNIk-75" connectable="0" vertex="1">
          <mxGeometry x="-1" relative="1" as="geometry">
            <mxPoint x="-20" y="-31" as="offset" />
          </mxGeometry>
        </mxCell>
        <mxCell id="yiejE2Crp5BbZ_o_QNIk-77" value="&lt;font style=&quot;font-size: 20px&quot;&gt;&amp;nbsp;1..*&lt;/font&gt;" style="resizable=0;html=1;align=right;verticalAlign=top;labelBackgroundColor=none;fontSize=10" parent="yiejE2Crp5BbZ_o_QNIk-75" connectable="0" vertex="1">
          <mxGeometry x="0.9" relative="1" as="geometry">
            <mxPoint x="24" as="offset" />
          </mxGeometry>
        </mxCell>
        <mxCell id="yiejE2Crp5BbZ_o_QNIk-78" value="" style="endArrow=diamondThin;endFill=0;endSize=24;html=1;fontSize=36;strokeWidth=1;exitX=1;exitY=0.5;exitDx=0;exitDy=0;" parent="WIyWlLk6GJQsqaUBKTNV-1" source="yiejE2Crp5BbZ_o_QNIk-0" edge="1">
          <mxGeometry width="160" relative="1" as="geometry">
            <mxPoint x="825" y="870" as="sourcePoint" />
            <mxPoint x="775" y="342" as="targetPoint" />
            <Array as="points">
              <mxPoint x="845" y="860" />
              <mxPoint x="845" y="342" />
            </Array>
          </mxGeometry>
        </mxCell>
        <mxCell id="yiejE2Crp5BbZ_o_QNIk-79" value="&lt;font style=&quot;font-size: 20px&quot;&gt;ثبت کردن&lt;br&gt;&lt;/font&gt;" style="verticalAlign=bottom;html=1;endArrow=none;edgeStyle=orthogonalEdgeStyle;fontSize=36;entryX=0;entryY=0.5;entryDx=0;entryDy=0;strokeWidth=1;" parent="WIyWlLk6GJQsqaUBKTNV-1" target="yiejE2Crp5BbZ_o_QNIk-0" edge="1">
          <mxGeometry x="-0.2256" y="-45" relative="1" as="geometry">
            <mxPoint x="385" y="641" as="sourcePoint" />
            <mxPoint x="569" y="862.988" as="targetPoint" />
            <Array as="points">
              <mxPoint x="385" y="860" />
            </Array>
            <mxPoint y="1" as="offset" />
          </mxGeometry>
        </mxCell>
        <mxCell id="pAPnsI3d8b7nOSqmGYf5-3" value="&lt;font style=&quot;font-size: 20px&quot;&gt;&amp;nbsp;1..*&lt;/font&gt;" style="resizable=0;html=1;align=right;verticalAlign=top;labelBackgroundColor=none;fontSize=10" parent="WIyWlLk6GJQsqaUBKTNV-1" connectable="0" vertex="1">
          <mxGeometry x="1027" y="430" as="geometry" />
        </mxCell>
        <mxCell id="pAPnsI3d8b7nOSqmGYf5-4" value="1" style="edgeLabel;html=1;align=center;verticalAlign=middle;resizable=0;points=[];fontSize=20;" parent="WIyWlLk6GJQsqaUBKTNV-1" vertex="1" connectable="0">
          <mxGeometry x="805" y="300" as="geometry" />
        </mxCell>
        <mxCell id="pAPnsI3d8b7nOSqmGYf5-5" value="1" style="edgeLabel;html=1;align=center;verticalAlign=middle;resizable=0;points=[];fontSize=20;" parent="WIyWlLk6GJQsqaUBKTNV-1" vertex="1" connectable="0">
          <mxGeometry x="805" y="366" as="geometry" />
        </mxCell>
        <mxCell id="pAPnsI3d8b7nOSqmGYf5-6" value="&lt;font style=&quot;font-size: 20px&quot;&gt;&amp;nbsp;1..*&lt;/font&gt;" style="resizable=0;html=1;align=right;verticalAlign=top;labelBackgroundColor=none;fontSize=10" parent="WIyWlLk6GJQsqaUBKTNV-1" connectable="0" vertex="1">
          <mxGeometry x="724" y="830" as="geometry" />
        </mxCell>
        <mxCell id="pAPnsI3d8b7nOSqmGYf5-7" value="&lt;font style=&quot;font-size: 20px&quot;&gt;&amp;nbsp;1..*&lt;/font&gt;" style="resizable=0;html=1;align=right;verticalAlign=top;labelBackgroundColor=none;fontSize=10" parent="WIyWlLk6GJQsqaUBKTNV-1" connectable="0" vertex="1">
          <mxGeometry x="513" y="830" as="geometry" />
        </mxCell>
        <mxCell id="pAPnsI3d8b7nOSqmGYf5-9" value="1" style="edgeLabel;html=1;align=center;verticalAlign=middle;resizable=0;points=[];fontSize=20;" parent="WIyWlLk6GJQsqaUBKTNV-1" vertex="1" connectable="0">
          <mxGeometry x="465" y="670" as="geometry" />
        </mxCell>
        <mxCell id="pAPnsI3d8b7nOSqmGYf5-10" value="1" style="edgeLabel;html=1;align=center;verticalAlign=middle;resizable=0;points=[];fontSize=20;" parent="WIyWlLk6GJQsqaUBKTNV-1" vertex="1" connectable="0">
          <mxGeometry x="345" y="670" as="geometry">
            <mxPoint x="22" as="offset" />
          </mxGeometry>
        </mxCell>
        <mxCell id="pAPnsI3d8b7nOSqmGYf5-11" value="&lt;font style=&quot;font-size: 20px&quot;&gt;&amp;nbsp;1..*&lt;/font&gt;" style="resizable=0;html=1;align=right;verticalAlign=top;labelBackgroundColor=none;fontSize=10" parent="WIyWlLk6GJQsqaUBKTNV-1" connectable="0" vertex="1">
          <mxGeometry x="1025" y="591" as="geometry" />
        </mxCell>
        <mxCell id="Nza7UvFCWOQMesL6nroq-0" value="1" style="edgeLabel;html=1;align=center;verticalAlign=middle;resizable=0;points=[];fontSize=20;" parent="WIyWlLk6GJQsqaUBKTNV-1" vertex="1" connectable="0">
          <mxGeometry x="683" y="233" as="geometry">
            <mxPoint x="-142" y="-105" as="offset" />
          </mxGeometry>
        </mxCell>
      </root>
    </mxGraphModel>
  </diagram>
</mxfile>
